<?xml version="1.0" encoding="utf-8"?>
<!-- Generator: Adobe Illustrator 27.0.0, SVG Export Plug-In . SVG Version: 6.00 Build 0)  -->
<svg version="1.1" id="PRINT" xmlns="http://www.w3.org/2000/svg" xmlns:xlink="http://www.w3.org/1999/xlink" x="0px" y="0px"
	 viewBox="0 0 841.9 595.3" style="enable-background:new 0 0 841.9 595.3;" xml:space="preserve">
<style type="text/css">
	.st0{fill:#FFFFFF;}
	.st1{clip-path:url(#SVGID_00000004509137414589601390000011782008717259993750_);}
	.st2{fill:#DFDFDF;}
	.st3{fill:#EFEFEF;}
	.st4{fill:#2D2D2D;}
	.st5{fill:#202020;}
	.st6{fill:#1C64F2;}
	.st7{fill:#3A3A3A;}
	.st8{fill:none;}
	.st9{font-family:'MyriadPro-Regular';}
	.st10{font-size:12px;}
	.st11{fill:none;stroke:#202020;stroke-miterlimit:10;}
	.st12{font-family:'Poppins-MediumItalic';}
	.st13{font-size:50px;}
	.st14{letter-spacing:-1;}
	.st15{font-family:'Poppins-ExtraBoldItalic';}
	.st16{font-size:121.2062px;}
	.st17{letter-spacing:-7;}
	.st18{font-size:65.9309px;}
	.st19{font-size:20px;}
	.st20{font-size:7px;}
	.st21{font-size:21.87px;}
	.st22{font-size:36.45px;}
	.st23{font-size:12.4416px;}
	.st24{font-size:20.736px;}
</style>
<rect x="-14.2" y="-14.2" class="st0" width="870.2" height="624.4"/>
<g>
	<defs>
		<rect id="SVGID_1_" x="-14.2" y="-14.2" width="870.2" height="624.4"/>
	</defs>
	<clipPath id="SVGID_00000003809417877877288940000011323315344180073389_">
		<use xlink:href="#SVGID_1_"  style="overflow:visible;"/>
	</clipPath>
	<g style="clip-path:url(#SVGID_00000003809417877877288940000011323315344180073389_);">
		<polygon class="st2" points="-33.9,513.6 -162.3,513.6 207.2,-14.2 335.6,-14.2 		"/>
		<polygon class="st3" points="-78.7,609.5 -93.9,609.5 342.8,-14.2 357.9,-14.2 		"/>
		<polygon class="st3" points="-63,609.5 -71.2,609.5 365.5,-14.2 373.6,-14.2 		"/>
		<polygon class="st3" points="-45.7,609.5 -49.9,609.5 386.8,-14.2 391,-14.2 		"/>
		<polygon class="st4" points="-88.7,540.5 -236.4,540.5 -43.2,264.6 104.5,264.6 		"/>
		<polygon class="st5" points="-66.2,359.5 -285.1,359.5 -23.4,-14.2 195.4,-14.2 		"/>
		<polygon class="st6" points="-20.2,454.8 -68.5,454.8 20.9,327.3 69.1,327.3 		"/>
		<polygon class="st6" points="-50.7,281 -58.4,281 207.2,-98.3 214.9,-98.3 		"/>
		<polygon class="st4" points="81.4,57.7 -71.9,57.7 22.9,-77.7 176.1,-77.7 		"/>
		<polygon class="st7" points="-96.8,280 -151,280 55,-14.2 109.1,-14.2 		"/>
	</g>
	<g style="clip-path:url(#SVGID_00000003809417877877288940000011323315344180073389_);">
		<polygon class="st6" points="740.6,39.7 593,39.7 786.2,-236.3 933.8,-236.3 		"/>
		<polygon class="st5" points="689.8,27.7 542.1,27.7 735.3,-248.3 883,-248.3 		"/>
		<polygon class="st5" points="446.5,101.6 438.8,101.6 704.4,-277.8 712.1,-277.8 		"/>
	</g>
	<g style="clip-path:url(#SVGID_00000003809417877877288940000011323315344180073389_);">
		<polygon class="st8" points="482.4,615.3 467.3,615.3 903.9,-8.4 919.1,-8.4 		"/>
		<text transform="matrix(1 0 0 1 903.351 0.165)" class="st9 st10">  </text>
		<polygon class="st3" points="458.2,615.3 450.1,615.3 886.7,-8.4 894.9,-8.4 		"/>
		<polygon class="st3" points="438.6,615.3 434.4,615.3 871.1,-8.4 875.3,-8.4 		"/>
		<polygon class="st4" points="868.8,661.8 721.1,661.8 914.4,385.9 1062,385.9 		"/>
		<polygon class="st5" points="742.8,609.5 494.5,609.5 879.3,59.9 1127.6,59.9 		"/>
		<polygon class="st4" points="664.6,633.5 595.8,633.5 857.5,259.8 926.3,259.8 		"/>
		<polygon class="st4" points="862.4,248.5 807.8,248.5 879.2,146.4 933.8,146.4 		"/>
		<polygon class="st7" points="651.3,621.9 543.1,621.9 632.4,494.3 740.6,494.3 		"/>
		<polygon class="st6" points="843.5,220.8 795.2,220.8 884.5,93.3 932.8,93.3 		"/>
		<polygon class="st6" points="707.9,609.1 700.2,609.1 965.8,229.8 973.5,229.8 		"/>
		<polygon class="st4" points="611.5,610.2 453.3,610.2 475.1,579 633.3,579 		"/>
		<g>
			<polygon class="st11" points="771.2,123.1 625,123.1 668.7,60.6 814.9,60.6 			"/>
		</g>
	</g>
	<g style="clip-path:url(#SVGID_00000003809417877877288940000011323315344180073389_);">
		<polygon class="st5" points="467.9,244.4 26.8,244.4 29.1,241.2 470.2,241.2 		"/>
		<g>
			<g>
				<text transform="matrix(1 0 0 1 371.3144 164.0432)" class="st5 st12 st13 st14">/Month</text>
				<g>
					<text transform="matrix(1 0 0 1 146.472 216.769)" class="st6 st15 st16 st17">250</text>
				</g>
				<text transform="matrix(1 0 0 1 105.3269 182.0444)" class="st6 st15 st18 st14">$</text>
			</g>
			<polygon class="st6" points="419.4,98.5 20.1,98.5 50.4,55.3 449.7,55.3 			"/>
			<text transform="matrix(1 0 0 1 69.8527 83.7607)" class="st0 st15 st19">best protection on the road</text>
		</g>
		<polygon class="st8" points="377.5,322.5 89.5,322.5 130.5,264.5 418.5,264.5 		"/>
		<text transform="matrix(1 0 0 1 130.0944 269.6397)"><tspan x="0" y="0" class="st12 st20">Lorem ipsum dolor sit amet, consectetuer adipiscing elit, sed diam nonummy </tspan><tspan x="-8.5" y="12" class="st12 st20">nibh euismod tincidunt ut laoreet dolore magna aliquam erat volutpat. Ut wisi </tspan><tspan x="-17" y="24" class="st12 st20">enim ad minim veniam, quis nostrud exerci tation ullamcorper suscipit lobortis </tspan><tspan x="-25.5" y="36" class="st12 st20">nisl ut aliquip ex ea commodo consequat.</tspan></text>
	</g>
	<g style="clip-path:url(#SVGID_00000003809417877877288940000011323315344180073389_);">
		<polygon class="st6" points="136.9,334.2 146.4,327.2 153.9,336.3 164.7,331.9 169.7,342.6 181.3,341.1 183.5,352.6 195.1,354 
			194.3,365.7 205.3,370 201.6,381.2 211.1,388 204.8,397.9 212.3,406.9 203.7,414.9 208.8,425.5 198.5,431.1 200.7,442.6 
			189.3,445.5 188.6,457.2 176.9,457.2 173.3,468.4 162,465.4 155.7,475.3 145.5,469.6 136.9,477.7 128.4,469.6 118.2,475.3 
			111.9,465.4 100.6,468.4 97,457.2 85.2,457.2 84.6,445.5 73.2,442.6 75.4,431.1 65.1,425.5 70.2,414.9 61.6,406.9 69.1,397.9 
			62.8,388 72.3,381.2 68.6,370 79.6,365.7 78.7,354 90.4,352.6 92.6,341.1 104.2,342.6 109.1,331.9 120,336.3 127.5,327.2 		"/>
		<text transform="matrix(1 0 0 1 93.5795 391.6599)"><tspan x="0" y="0" class="st0 st12 st21">GET the</tspan><tspan x="-10.3" y="32.8" class="st0 st15 st22 st14">Deal!</tspan></text>
	</g>
	<g style="clip-path:url(#SVGID_00000003809417877877288940000011323315344180073389_);">
		<text transform="matrix(1 0 0 1 699.3018 85.1088)"><tspan x="0" y="0" class="st5 st12 st23">AUTOMOBILE</tspan><tspan x="-35.5" y="21" class="st5 st15 st24">SERVICES    </tspan></text>
	</g>
</g>
<image style="overflow:visible;" width="1920" height="1280" xlink:href="joey-banks-YApiWyp0lqo-unsplash-(1)-transformed.png"  transform="matrix(0.4323 0 0 0.4489 118.609 137.4626)">
</image>
</svg>
