<?xml version="1.0" encoding="UTF-8"?>
<svg id="Layer_2" data-name="Layer 2" xmlns="http://www.w3.org/2000/svg" viewBox="0 0 324.84 156.2">
  <defs>
    <style>
      .cls-1 {
        opacity: .5;
      }

      .cls-1, .cls-2, .cls-3 {
        fill: #4366b0;
      }

      .cls-2 {
        font-family: Bahnschrift-Bold, Bahnschrift;
        font-size: 72px;
        font-variation-settings: 'wght' 700, 'wdth' 100;
        font-weight: 700;
      }

      .cls-4 {
        letter-spacing: 0em;
      }
    </style>
  </defs>
  <g id="Layer_1-2" data-name="Layer 1">
    <g>
      <g>
        <path class="cls-3" d="M244.83,66.29c-3.74,0-6.78-3.04-6.78-6.78s3.04-6.78,6.78-6.78,6.78,3.04,6.78,6.78-3.04,6.78-6.78,6.78Zm0-12.68c-3.25,0-5.9,2.65-5.9,5.9s2.65,5.9,5.9,5.9,5.9-2.65,5.9-5.9-2.65-5.9-5.9-5.9Z"/>
        <path class="cls-3" d="M244.77,61.03c-.79,0-1.43-.64-1.43-1.43s.64-1.43,1.43-1.43,1.43,.64,1.43,1.43-.64,1.43-1.43,1.43Zm0-2.42c-.55,0-.99,.44-.99,.99s.44,.99,.99,.99,.99-.44,.99-.99-.44-.99-.99-.99Z"/>
        <path class="cls-3" d="M241.77,64.37l.42-3.78-2.88-2.49,3.73-.77,1.48-3.51,1.88,3.31,3.79,.33-2.57,2.81,.86,3.71-3.47-1.57-3.26,1.97Zm-.74-5.83l1.99,1.72-.29,2.61,2.25-1.36,2.39,1.09-.59-2.56,1.77-1.94-2.62-.23-1.3-2.29-1.03,2.42-2.58,.53Z"/>
      </g>
      <path class="cls-3" d="M66.19,59.19c0-11.91,9.66-21.57,21.58-21.57,7.7,0,14.45,4.03,18.27,10.1-3.66-7.53-11.38-12.72-20.32-12.72-12.47,0-22.58,10.11-22.58,22.57,0,10.74,7.5,19.71,17.55,22-8.44-2.93-14.5-10.94-14.5-20.38Z"/>
      <path class="cls-3" d="M41.1,28.21s-8.68,2.99-9.87,14.06c-1.2,11.07,0-22.44,0-22.44,0,0,.9,2.39,9.87,8.38Z"/>
      <path class="cls-3" d="M35.2,46.62s-5.2,25.42,26.44,24.08c0,0-33.81,9.53-31.65-24.08h5.2Z"/>
      <path class="cls-3" d="M276.55,33.6s-13.76-7.78-70.9-6.58c0,0-17.95-17.05-51.76-21.24,0,0-32.36-2.65-75.39,11.67,0,0-13.2,4.81-33.81,9.27,0,0-10.17-6.58-11.37-10.77,0,0,10.7,3.89,35.3-2.09,0,0,57.18-20.89,99.62-11.37,0,0,25.13,5.09,40.99,17.35,0,0,45.17-.9,67.31,13.76Z"/>
      <path class="cls-3" d="M285.82,46.57s-2.39-5.68-17.35-6.28c0,0-.44-1.74-4.79-5.98,0,0,14.96-3.29,22.14,12.27Z"/>
      <path class="cls-3" d="M146.11,28.51h51.46s-22.14-18.85-42.63-17.95c0,0,22.59,4.49,28.57,13.76l-37.4,4.19Z"/>
      <path class="cls-3" d="M139.53,28.51V12.96s-29.32-1.2-48.17,6.88c0,0,14.36-11.07,50.56-10.77l-2.39,19.45Z"/>
      <path class="cls-3" d="M285.82,49.47s-16.72,15.95,4.52,22.48c0,0-13.76,.05-17.65,0,0,0-.63-20.99,13.13-22.48Z"/>
      <path class="cls-3" d="M227.35,40.97h0c-40.69-18.03-72.74,16.01-125.12-7.37,0,0,30.79,45.96,107.76,21.37,0,0-33.73,23.39-91.46,2.3,0,0,61.28,33.42,106.45,14.32h0c3.14,3.94,7.56,6.81,12.64,7.97-5.47-1.9-9.93-5.93-12.4-11.1-6.79-14.23,3.57-30.84,19.48-30.84,7.7,0,14.45,4.03,18.27,10.1-6.65-13.67-24.55-16.96-35.63-6.74Z"/>
      <path class="cls-1" d="M244.83,40.66c-10.39,0-18.85,8.46-18.85,18.85s8.46,18.85,18.85,18.85,18.85-8.46,18.85-18.85-8.46-18.85-18.85-18.85Zm0,31.76c-7.12,0-12.9-5.79-12.9-12.9s5.79-12.9,12.9-12.9,12.9,5.79,12.9,12.9-5.79,12.9-12.9,12.9Zm9.32-25.38c-2.34-1.88-4.9-3-6.9-3.39,7.1,.45,13.18,6.15,14.06,13.59l-1.45,.05c-.46-5.03-3.35-8.34-5.7-10.24Z"/>
      <path class="cls-3" d="M244.83,40.66c-10.39,0-18.85,8.46-18.85,18.85s8.46,18.85,18.85,18.85,18.85-8.46,18.85-18.85-8.46-18.85-18.85-18.85Zm0,31.76c-7.12,0-12.9-5.79-12.9-12.9s5.79-12.9,12.9-12.9,12.9,5.79,12.9,12.9-5.79,12.9-12.9,12.9Zm9.32-25.38c-2.34-1.88-4.9-3-6.9-3.39,7.1,.45,13.18,6.15,14.06,13.59l-1.45,.05c-.46-5.03-3.35-8.34-5.7-10.24Z"/>
      <path class="cls-1" d="M87.88,40.66c-10.39,0-18.85,8.46-18.85,18.85s8.46,18.85,18.85,18.85,18.85-8.46,18.85-18.85-8.46-18.85-18.85-18.85Zm0,31.76c-7.11,0-12.9-5.79-12.9-12.9s5.79-12.9,12.9-12.9,12.9,5.79,12.9,12.9-5.79,12.9-12.9,12.9Zm9.32-25.38c-2.34-1.88-4.9-3-6.9-3.39,7.1,.45,13.18,6.15,14.06,13.59l-1.45,.05c-.45-5.03-3.35-8.34-5.7-10.24Z"/>
      <path class="cls-3" d="M87.88,40.66c-10.39,0-18.85,8.46-18.85,18.85s8.46,18.85,18.85,18.85,18.85-8.46,18.85-18.85-8.46-18.85-18.85-18.85Zm0,31.76c-7.11,0-12.9-5.79-12.9-12.9s5.79-12.9,12.9-12.9,12.9,5.79,12.9,12.9-5.79,12.9-12.9,12.9Zm9.32-25.38c-2.34-1.88-4.9-3-6.9-3.39,7.1,.45,13.18,6.15,14.06,13.59l-1.45,.05c-.45-5.03-3.35-8.34-5.7-10.24Z"/>
      <g>
        <path class="cls-3" d="M87.96,66.19c-3.74,0-6.78-3.04-6.78-6.78s3.04-6.78,6.78-6.78,6.78,3.04,6.78,6.78-3.04,6.78-6.78,6.78Zm0-12.68c-3.25,0-5.9,2.65-5.9,5.9s2.65,5.9,5.9,5.9,5.9-2.65,5.9-5.9-2.65-5.9-5.9-5.9Z"/>
        <path class="cls-3" d="M87.9,60.92c-.79,0-1.43-.64-1.43-1.43s.64-1.43,1.43-1.43,1.43,.64,1.43,1.43-.64,1.43-1.43,1.43Zm0-2.42c-.55,0-.99,.44-.99,.99s.44,.99,.99,.99,.99-.44,.99-.99-.44-.99-.99-.99Z"/>
        <path class="cls-3" d="M84.89,64.27l.42-3.78-2.88-2.49,3.73-.77,1.48-3.51,1.88,3.31,3.79,.33-2.57,2.81,.86,3.71-3.47-1.57-3.26,1.97Zm-.74-5.83l1.99,1.72-.29,2.61,2.25-1.36,2.4,1.09-.59-2.56,1.77-1.94-2.62-.23-1.3-2.29-1.02,2.42-2.58,.53Z"/>
      </g>
    </g>
    <text class="cls-2" transform="translate(0 136.73)"><tspan x="0" y="0">MOT</tspan><tspan class="cls-4" x="137.25" y="0">O</tspan><tspan x="183.02" y="0">H</tspan><tspan class="cls-4" x="231.89" y="0">U</tspan><tspan x="278.37" y="0">B</tspan></text>
  </g>
</svg>