<?xml version="1.0" encoding="UTF-8"?>
<svg id="Layer_2" data-name="Layer 2" xmlns="http://www.w3.org/2000/svg" viewBox="0 0 287.11 87.71">
  <defs>
    <style>
      .cls-1 {
        isolation: isolate;
        opacity: .5;
      }

      .cls-1, .cls-2 {
        fill: #4366b0;
      }
    </style>
  </defs>
  <g id="Layer_2-2" data-name="Layer 2">
    <g id="Layer_1-2" data-name="Layer 1-2">
      <g>
        <g>
          <path class="cls-2" d="M236.94,73.07c-4.12,0-7.47-3.35-7.47-7.47s3.35-7.47,7.47-7.47,7.47,3.35,7.47,7.47-3.35,7.47-7.47,7.47Zm0-13.98c-3.58,0-6.5,2.92-6.5,6.5s2.92,6.5,6.5,6.5,6.5-2.92,6.5-6.5-2.92-6.5-6.5-6.5Z"/>
          <path class="cls-2" d="M236.87,67.27c-.87,0-1.58-.71-1.58-1.58s.71-1.58,1.58-1.58,1.58,.71,1.58,1.58-.71,1.58-1.58,1.58Zm0-2.67c-.61,0-1.09,.49-1.09,1.09s.49,1.09,1.09,1.09,1.09-.49,1.09-1.09-.49-1.09-1.09-1.09Z"/>
          <path class="cls-2" d="M233.57,70.95l.46-4.17-3.17-2.74,4.11-.85,1.63-3.87,2.07,3.65,4.18,.36-2.83,3.1,.95,4.09-3.83-1.73-3.59,2.17h.02Zm-.82-6.44l2.19,1.9-.32,2.88,2.48-1.5,2.63,1.2-.65-2.82,1.95-2.14-2.89-.25-1.43-2.52-1.14,2.67-2.84,.58h.01Z"/>
        </g>
        <path class="cls-2" d="M40.01,65.24c0-13.13,10.65-23.78,23.79-23.78,8.49,0,15.93,4.44,20.14,11.13-4.03-8.3-12.54-14.02-22.4-14.02-13.75,0-24.89,11.14-24.89,24.88,0,11.84,8.27,21.73,19.35,24.25-9.3-3.23-15.98-12.06-15.98-22.47Z"/>
        <path class="cls-2" d="M12.36,31.09s-9.57,3.3-10.88,15.5c-1.32,12.2,0-24.74,0-24.74,0,0,.99,2.63,10.88,9.24Z"/>
        <path class="cls-2" d="M5.85,51.39S.12,79.41,35,77.93c0,0-37.27,10.51-34.89-26.54H5.85Z"/>
        <path class="cls-2" d="M271.91,37.04s-15.17-8.58-78.16-7.25c0,0-19.79-18.8-57.06-23.41,0,0-35.67-2.92-83.11,12.86,0,0-14.55,5.3-37.27,10.22,0,0-11.21-7.25-12.53-11.87,0,0,11.8,4.29,38.91-2.3,0,0,63.03-23.03,109.82-12.53,0,0,27.7,5.61,45.19,19.13,0,0,49.79-.99,74.2,15.17h.01Z"/>
        <path class="cls-2" d="M282.13,51.33s-2.63-6.26-19.13-6.92c0,0-.49-1.92-5.28-6.59,0,0,16.49-3.63,24.41,13.53h0Z"/>
        <path class="cls-2" d="M128.12,31.42h56.73s-24.41-20.78-46.99-19.79c0,0,24.9,4.95,31.49,15.17l-41.23,4.62h0Z"/>
        <path class="cls-2" d="M120.86,31.42V14.28s-32.32-1.32-53.1,7.58c0,0,15.83-12.2,55.74-11.87l-2.63,21.44h0Z"/>
        <path class="cls-2" d="M282.13,54.53s-18.43,17.58,4.98,24.78c0,0-15.17,.06-19.46,0,0,0-.69-23.14,14.47-24.78Z"/>
        <path class="cls-2" d="M217.67,45.16h0c-44.86-19.88-80.19,17.65-137.93-8.12,0,0,33.94,50.66,118.79,23.56,0,0-37.18,25.78-100.82,2.54,0,0,67.55,36.84,117.35,15.79h0c3.46,4.34,8.33,7.51,13.93,8.79-6.03-2.09-10.95-6.54-13.67-12.24-7.49-15.69,3.94-34,21.47-34,8.49,0,15.93,4.44,20.14,11.13-7.33-15.07-27.06-18.7-39.28-7.43h.01Z"/>
        <path class="cls-1" d="M236.94,44.82c-11.45,0-20.78,9.33-20.78,20.78s9.33,20.78,20.78,20.78,20.78-9.33,20.78-20.78-9.33-20.78-20.78-20.78h0Zm0,35.01c-7.85,0-14.22-6.38-14.22-14.22s6.38-14.22,14.22-14.22,14.22,6.38,14.22,14.22-6.38,14.22-14.22,14.22h0Zm10.27-27.98c-2.58-2.07-5.4-3.31-7.61-3.74,7.83,.5,14.53,6.78,15.5,14.98l-1.6,.06c-.51-5.54-3.69-9.19-6.28-11.29h-.01Z"/>
        <path class="cls-2" d="M236.94,44.82c-11.45,0-20.78,9.33-20.78,20.78s9.33,20.78,20.78,20.78,20.78-9.33,20.78-20.78-9.33-20.78-20.78-20.78h0Zm0,35.01c-7.85,0-14.22-6.38-14.22-14.22s6.38-14.22,14.22-14.22,14.22,6.38,14.22,14.22-6.38,14.22-14.22,14.22h0Zm10.27-27.98c-2.58-2.07-5.4-3.31-7.61-3.74,7.83,.5,14.53,6.78,15.5,14.98l-1.6,.06c-.51-5.54-3.69-9.19-6.28-11.29h-.01Z"/>
        <path class="cls-1" d="M63.93,44.82c-11.45,0-20.78,9.33-20.78,20.78s9.33,20.78,20.78,20.78,20.78-9.33,20.78-20.78-9.33-20.78-20.78-20.78Zm0,35.01c-7.84,0-14.22-6.38-14.22-14.22s6.38-14.22,14.22-14.22,14.22,6.38,14.22,14.22-6.38,14.22-14.22,14.22Zm10.27-27.98c-2.58-2.07-5.4-3.31-7.61-3.74,7.83,.5,14.53,6.78,15.5,14.98l-1.6,.06c-.5-5.54-3.69-9.19-6.28-11.29h-.01Z"/>
        <path class="cls-2" d="M63.93,44.82c-11.45,0-20.78,9.33-20.78,20.78s9.33,20.78,20.78,20.78,20.78-9.33,20.78-20.78-9.33-20.78-20.78-20.78Zm0,35.01c-7.84,0-14.22-6.38-14.22-14.22s6.38-14.22,14.22-14.22,14.22,6.38,14.22,14.22-6.38,14.22-14.22,14.22Zm10.27-27.98c-2.58-2.07-5.4-3.31-7.61-3.74,7.83,.5,14.53,6.78,15.5,14.98l-1.6,.06c-.5-5.54-3.69-9.19-6.28-11.29h-.01Z"/>
        <g>
          <path class="cls-2" d="M64.01,72.96c-4.12,0-7.47-3.35-7.47-7.47s3.35-7.47,7.47-7.47,7.47,3.35,7.47,7.47-3.35,7.47-7.47,7.47Zm0-13.98c-3.58,0-6.5,2.92-6.5,6.5s2.92,6.5,6.5,6.5,6.5-2.92,6.5-6.5-2.92-6.5-6.5-6.5Z"/>
          <path class="cls-2" d="M63.95,67.15c-.87,0-1.58-.71-1.58-1.58s.71-1.58,1.58-1.58,1.58,.71,1.58,1.58-.71,1.58-1.58,1.58Zm0-2.67c-.61,0-1.09,.49-1.09,1.09s.49,1.09,1.09,1.09,1.09-.49,1.09-1.09-.49-1.09-1.09-1.09Z"/>
          <path class="cls-2" d="M60.63,70.84l.46-4.17-3.17-2.74,4.11-.85,1.63-3.87,2.07,3.65,4.18,.36-2.83,3.1,.95,4.09-3.83-1.73-3.59,2.17h.02Zm-.82-6.44l2.19,1.9-.32,2.88,2.48-1.5,2.65,1.2-.65-2.82,1.95-2.14-2.89-.25-1.43-2.52-1.12,2.67-2.84,.58h-.01Z"/>
        </g>
      </g>
    </g>
  </g>
</svg>